<svg xmlns="http://www.w3.org/2000/svg" xmlns:svg="http://www.w3.org/2000/svg" id="svg8" width="125mm" height="125mm" version="1.1" viewBox="0 0 125 125"><metadata id="metadata5"/><g id="layer2" transform="translate(15.798175,-149.30253)" style="display:inline"><g style="display:inline" id="g841" transform="matrix(0.26458333,0,0,0.26458333,-0.56695641,149.1546)"><title id="title818">Layer 1</title><g id="g2984" transform="translate(0,-4)"><path id="path2931" stroke-miterlimit="4" d="m 307.28837,48.768896 h 39.9273" style="fill:none;fill-opacity:.75;fill-rule:evenodd;stroke:#000;stroke-width:6.8031497;stroke-miterlimit:4;stroke-dasharray:none"/><path id="path2935" stroke-miterlimit="4" d="m 307.28837,399.13087 h 39.9273" style="fill:none;fill-opacity:.75;fill-rule:evenodd;stroke:#000;stroke-width:6.8031497;stroke-miterlimit:4;stroke-dasharray:none"/><path id="path2937" stroke-miterlimit="4" d="m 307.28837,223.94989 h 39.9273" style="fill:none;fill-opacity:.75;fill-rule:evenodd;stroke:#000;stroke-width:3.99272919;stroke-miterlimit:4"/><path id="path2939" stroke-miterlimit="4" d="m 307.28837,188.91368 h 13.30912" style="fill:none;fill-opacity:.75;fill-rule:evenodd;stroke:#000;stroke-width:3.99272919;stroke-miterlimit:4"/><path id="path2941" stroke-miterlimit="4" d="m 307.28837,153.87748 h 13.30912" style="fill:none;fill-opacity:.75;fill-rule:evenodd;stroke:#000;stroke-width:3.99272919;stroke-miterlimit:4"/><path id="path2943" stroke-miterlimit="4" d="m 307.28837,118.84129 h 13.30912" style="fill:none;fill-opacity:.75;fill-rule:evenodd;stroke:#000;stroke-width:3.99272919;stroke-miterlimit:4"/><path id="path2945" stroke-miterlimit="4" d="m 307.28837,83.805093 h 13.30912" style="fill:none;fill-opacity:.75;fill-rule:evenodd;stroke:#000;stroke-width:3.99272919;stroke-miterlimit:4"/><path id="path2947" stroke-miterlimit="4" d="m 307.28837,258.98608 h 13.30912" style="fill:none;fill-opacity:.75;fill-rule:evenodd;stroke:#000;stroke-width:3.99272919;stroke-miterlimit:4"/><path id="path2949" stroke-miterlimit="4" d="m 307.28837,294.02227 h 13.30912" style="fill:none;fill-opacity:.75;fill-rule:evenodd;stroke:#000;stroke-width:3.99272919;stroke-miterlimit:4"/><path id="path2951" stroke-miterlimit="4" d="m 307.28837,329.0585 h 13.30912" style="fill:none;fill-opacity:.75;fill-rule:evenodd;stroke:#000;stroke-width:3.99272919;stroke-miterlimit:4"/><path id="path2953" stroke-miterlimit="4" d="m 307.28837,364.09468 h 13.30912" style="fill:none;fill-opacity:.75;fill-rule:evenodd;stroke:#000;stroke-width:3.99272919;stroke-miterlimit:4"/><path id="path900" d="m 149.13528,58.13355 c 21.72944,95.93534 61.46325,142.26675 112.53189,204.40466 17.66558,21.49719 28.54804,47.55014 28.54804,76.44843 0,70.66344 -63.32136,127.95945 -141.07283,127.95945 -77.753178,0 -140.5228774,-57.29601 -140.5228774,-127.95945 0,-28.51622 9.7072944,-55.62912 27.7161204,-76.44843 C 89.6304,200.91615 128.63687,154.33489 149.13349,58.125488 Z" style="fill:navy;stroke:#000;stroke-width:6.04724417;stroke-miterlimit:4;stroke-dasharray:none;stroke-opacity:1;fill-opacity:1"/></g><g id="g3023" transform="matrix(1.0532362,0,0,0.99818224,-10.032632,0.84889123)" style="fill:#c00;fill-opacity:1"><rect id="rect2922" width="33" height="424.357" x="268.5" y="8" stroke-miterlimit="4" rx="16" ry="16" style="fill:#c00;fill-rule:nonzero;stroke-width:4;stroke-linecap:round;stroke-linejoin:round;stroke-miterlimit:4;stroke-dashoffset:0;fill-opacity:1"/><rect id="rect3021" width="33" height="65.286" x="268.5" y="367.071" stroke-miterlimit="4" style="fill:#c00;fill-rule:nonzero;stroke-width:4;stroke-linecap:round;stroke-linejoin:round;stroke-miterlimit:4;stroke-dashoffset:0;fill-opacity:1"/><path id="path2924" stroke-miterlimit="4" d="M 318,432.35715 C 318,450.38531 303.2254,465 285,465 c -18.22537,0 -33,-14.61469 -33,-32.64285 0,-18.02817 14.77463,-32.64286 33,-32.64286 18.2254,0 33,14.61469 33,32.64286 z" style="fill:#c00;fill-rule:nonzero;stroke-width:4;stroke-linecap:round;stroke-linejoin:round;stroke-miterlimit:4;stroke-dashoffset:0;fill-opacity:1"/><path id="rect2968" stroke-miterlimit="4" d="m 285,8.00001 c -9.14102,0 -16.5,7.27935 -16.5,16.32143 v 379.7601 C 258.63678,409.72784 252,420.28125 252,432.35715 252,450.37601 266.784,465 285,465 c 18.216,0 33,-14.62399 33,-32.64285 0,-12.0759 -6.63678,-22.62931 -16.5,-28.27561 V 24.32144 C 301.5,15.27936 294.14102,8.00001 285,8.00001 Z" style="fill:#c00;fill-rule:nonzero;stroke:#000;stroke-width:5.30097437;stroke-linecap:round;stroke-linejoin:round;stroke-miterlimit:4;stroke-dasharray:none;stroke-dashoffset:0;fill-opacity:1"/></g></g><rect style="opacity:1;fill:#fff;fill-opacity:1;stroke:#fff;stroke-width:.51432866;stroke-miterlimit:4;stroke-dasharray:none;stroke-opacity:1" id="rect898" width="7.221" height="9.777" x="72.581" y="152.307" ry="3.566"/></g></svg>